<svg width="63" height="63" viewBox="0 0 63 63" fill="none" xmlns="http://www.w3.org/2000/svg">
<path fill-rule="evenodd" clip-rule="evenodd" d="M0.814998 10.4445C-0.643502 24.0226 9.545 35.8815 23.0613 34.6731C23.7944 29.6944 19.2766 22.8359 15.0857 21.8178L19.597 30.1171C11.0494 29.9535 4.912 22.9766 4.3728 14.1309C15.9543 14.4481 26.8405 25.479 25.3758 36.1659C14.4491 39.2309 5.3292 48.4084 6.7205 62.1463C24.028 62.6077 29.363 39.4896 30.5169 38.9964C35.3899 38.0804 32.2105 44.9069 39.5972 53.8796C42.8213 57.796 49.0707 61.9533 55.7382 62.2402C57.2217 47.1319 47.4357 40.0648 37.5405 35.8031C37.801 23.3453 45.8273 14.557 57.9772 14.1233C57.6368 25.9668 45.7753 32.2354 42.6264 30.4049L48.1248 20.8676C44.6967 22.0915 38.5666 29.6965 38.8716 34.5137C49.6927 37.5268 65.2131 23.4878 61.6096 10.3046C35.7015 8.4191 34.8748 34.3921 31.619 35.1998C26.7165 36.4161 30.5602 9.6146 0.814998 10.4445V10.4445ZM10.7175 57.1099C11.2277 52.5647 13.1531 48.6392 15.962 45.665C17.7997 43.7194 21.5579 39.944 25.3914 40.4137C23.1439 48.1071 18.7712 55.9146 10.7175 57.1099V57.1099ZM37.032 40.4367C43.0178 39.7829 51.2022 49.4365 52.1871 57.3677C48.0344 56.5126 44.4294 53.9454 42.297 51.2198C38.9568 46.9505 39.0094 45.4419 37.032 40.4367Z" fill="black" fill-opacity="0.06"/>
<path d="M31.6886 17.911C36.4884 17.911 40.3794 14.02 40.3794 9.22019C40.3794 4.42039 36.4884 0.529388 31.6886 0.529388C26.8888 0.529388 22.9978 4.42039 22.9978 9.22019C22.9978 14.02 26.8888 17.911 31.6886 17.911Z" fill="black" fill-opacity="0.06" stroke="black" stroke-opacity="0.06" stroke-width="0.2" stroke-miterlimit="22.9256" stroke-linecap="round" stroke-linejoin="round"/>
<path fill-rule="evenodd" clip-rule="evenodd" d="M31.6886 2.52939C35.3838 2.52939 38.3794 5.52499 38.3794 9.22019C38.3794 12.9154 35.3838 15.911 31.6886 15.911C27.9934 15.911 24.9978 12.9154 24.9978 9.22019C24.9978 5.52499 27.9934 2.52939 31.6886 2.52939V2.52939Z" fill="white" stroke="black" stroke-opacity="0.06" stroke-width="0.2" stroke-miterlimit="22.9256" stroke-linecap="round" stroke-linejoin="round"/>
</svg>
