<svg width="62" height="64" viewBox="0 0 62 64" fill="none" xmlns="http://www.w3.org/2000/svg">
<path fill-rule="evenodd" clip-rule="evenodd" d="M0.294612 12.2043C-1.16389 25.7824 9.02461 37.6413 22.5409 36.4329C23.274 31.4542 18.7562 24.5957 14.5653 23.5776L19.0766 31.8769C10.529 31.7133 4.39161 24.7364 3.85241 15.8907C15.4339 16.2079 26.3201 27.2388 24.8554 37.9257C13.9287 40.9907 4.80881 50.1682 6.20011 63.9061C23.5076 64.3675 28.8426 41.2494 29.9965 40.7562C34.8695 39.8402 31.6901 46.6667 39.0768 55.6394C42.3009 59.5558 48.5503 63.7131 55.2178 64C56.7013 48.8917 46.9153 41.8246 37.0201 37.5629C37.2806 25.1051 45.3069 16.3168 57.4568 15.8831C57.1164 27.7266 45.2549 33.9952 42.106 32.1647L47.6044 22.6274C44.1763 23.8513 38.0462 31.4563 38.3512 36.2735C49.1723 39.2866 64.6927 25.2476 61.0892 12.0644C35.1811 10.1789 34.3544 36.1519 31.0986 36.9596C26.1961 38.1759 30.0398 11.3744 0.294612 12.2043V12.2043ZM10.1971 58.8697C10.7073 54.3245 12.6327 50.399 15.4416 47.4248C17.2793 45.4792 21.0375 41.7038 24.871 42.1735C22.6235 49.8669 18.2508 57.6744 10.1971 58.8697V58.8697ZM36.5116 42.1965C42.4974 41.5427 50.6818 51.1963 51.6667 59.1275C47.514 58.2724 43.909 55.7052 41.7766 52.9796C38.4364 48.7103 38.489 47.2017 36.5116 42.1965Z" fill="white"/>
<path d="M31.1682 19.6708C35.968 19.6708 39.859 15.7798 39.859 10.98C39.859 6.18019 35.968 2.28918 31.1682 2.28918C26.3684 2.28918 22.4774 6.18019 22.4774 10.98C22.4774 15.7798 26.3684 19.6708 31.1682 19.6708Z" stroke="white" stroke-width="4.2" stroke-miterlimit="22.9256" stroke-linecap="round" stroke-linejoin="round"/>
</svg>
